# xmcd
#
# Track frame offsets:
#	150
#	19110
#	33043
#	48100
#	63823
#	81213
#	93200
#	110100
#	127135
#	137478
#	153173
#	166285
#
# Disc length: 2469 seconds
#
# Revision: 1
# Processed by: cddbd v1.5.1PL0 Copyright (c) Steve Scherf et al.
# Submitted via: EasyCDDAExtractor 6.0.0.1
#
DISCID=8c09a30c
DTITLE=White Canyon
DYEAR=1990
DGENRE=Country
TTITLE0=White Canyon
TTITLE1=Little White Lies
TTITLE2=Let's Try
TTITLE3=Lady Desperado
TTITLE4=Music Is My Life
TTITLE5=Have Heartache Will Travel
TTITLE6=Our Love Is Not Perfect
TTITLE7=Let'Em Talk
TTITLE8=Back In Baby's Arms
TTITLE9=Crazy Horses
TTITLE10=Ramblin' Man
TTITLE11=Wheather The Storm
EXTD=
EXTT0=
EXTT1=
EXTT2=
EXTT3=
EXTT4=
EXTT5=
EXTT6=
EXTT7=
EXTT8=
EXTT9=
EXTT10=
EXTT11=
PLAYORDER=
